<svg xmlns="http://www.w3.org/2000/svg" viewBox="0 0 64 64"><defs><style>.cls-1{fill:#000842;}.cls-2{fill:#fff;}.cls-3{fill:#f6ae2d;}</style></defs><g id="Ebene_1"><rect class="cls-1" width="64" height="64"/></g><g id="maps2"><path class="cls-2" d="M50.61,20.43,40.55,24.9l-16-4.58a2.38,2.38,0,0,0-1.64.11L12,25.26a2.4,2.4,0,0,0-1.43,2.2V51.59A2.41,2.41,0,0,0,14,53.79L24,49.32l16.05,4.59a2.44,2.44,0,0,0,1.64-.12L52.57,49A2.42,2.42,0,0,0,54,46.76V22.64A2.42,2.42,0,0,0,50.61,20.43ZM25.05,23l14.47,4.14V51.24L25.05,47.11V23ZM13,51.59V27.46l9.65-4.29V47.3Zm38.61-4.83-9.65,4.29V26.92l9.65-4.29Z"/><g id="Ebene_8"><path class="cls-3" d="M35.5,30.48c-7.38-10.7-8.75-11.8-8.75-15.73a9.75,9.75,0,0,1,19.5,0c0,3.93-1.37,5-8.75,15.73a1.22,1.22,0,0,1-2,0Zm1-11.67a4.06,4.06,0,1,0-4.06-4.06A4.06,4.06,0,0,0,36.5,18.81Z"/></g></g></svg>
