<?xml version="1.0" ?>
<!DOCTYPE svg PUBLIC '-//W3C//DTD SVG 1.1//EN'  'http://www.w3.org/Graphics/SVG/1.1/DTD/svg11.dtd'>
<svg enable-background="new 0 0 800 800" height="800px" id="Layer_1" version="1.1" viewBox="0 0 800 800" width="800px" xml:space="preserve" xmlns="http://www.w3.org/2000/svg" xmlns:xlink="http://www.w3.org/1999/xlink">
  <g>
    <path d="M325.317,578.848c73.923,0,182.642-277.29,182.642-364.46c0-100.716-81.943-182.642-182.642-182.642   c-100.716,0-182.65,81.926-182.65,182.642C142.667,297.326,255.907,578.848,325.317,578.848z M179.027,214.388   c0-80.66,65.622-146.281,146.291-146.281c80.659,0,146.272,65.622,146.272,146.281c0,41.885-23.42,120.284-59.681,199.751   c-38.449,84.249-72.666,128.35-86.574,128.35c-6.782-0.471-39.362-31.794-84.304-128.559   C203.948,334.093,179.027,253.895,179.027,214.388z" fill="#4D4D4D"/>
    <path d="M437.012,217.417c0-61.589-50.114-111.703-111.694-111.703c-61.598,0-111.703,50.114-111.703,111.703   c0,61.598,50.104,111.703,111.703,111.703C386.897,329.12,437.012,279.015,437.012,217.417z M246.611,217.417   c0-43.404,35.302-78.715,78.707-78.715c43.396,0,78.706,35.311,78.706,78.715c0,43.396-35.311,78.707-78.706,78.707   C281.913,296.124,246.611,260.813,246.611,217.417z" fill="#4D4D4D"/>
    <path d="M755.526,746.316l-140.72-392.031c-1.646-4.584-5.219-8.184-9.785-9.856l-100.896-36.993l-1.32,4.431   c-4.503,15.038-9.639,30.654-15.281,46.46l-0.362,0.995L502.1,470.799l-75.253,23.936l-0.831,1.501   c-6.022,10.752-12.036,20.698-17.995,29.786l-0.325,0.479c-7.777,11.837-17.561,22.208-25.121,31.017l-3.11,1.221v163.615   L266.92,686.699l16.132-112.743l-1.085-1.528c-6.746-6.447-13.446-14.296-20.436-23.33l-6.239-8.229l-19.279,144.5L86.042,727.472   l66.797-186.015l81.799-32.716l-2.55-4.368c-4.033-6.89-7.976-13.943-11.8-21.06l-1.836-3.418l-50.792,20.319l25.69-71.555   l-0.732-1.609c-4.847-10.725-9.54-21.558-13.935-32.228l-4.304-10.417L44.474,746.316c-2.089,5.797-0.778,12.207,3.436,16.72   c3.092,3.319,7.469,5.218,12.008,5.218c1.483,0,2.966-0.208,4.413-0.605l186.322-52.312l137.718,42.853   c0.1,0.072,0.19,0.136,0.28,0.208c2.333,1.7,5.245,2.677,8.039,2.812c2.161,0.453,5.036,0.371,6.031,0.082   c3.382-0.217,6.284-1.193,8.608-2.885c0.1-0.072,0.199-0.145,0.299-0.217l137.718-42.853l186.341,52.312   c5.787,1.618,12.315-0.209,16.402-4.621C756.305,758.523,757.615,752.113,755.526,746.316z M416.502,722.354V532.487l90.064-28.683   l24.523,182.895L416.502,722.354z M518.701,347.711l67.82,24.867l45.104,125.656l-96.23-25.916L518.701,347.711z M563.933,685.369   l-23.818-177.813l105.012,28.268l68.805,191.647L563.933,685.369z" fill="#4D4D4D"/>
  </g>
</svg>
